# xmcd
#
# Track frame offsets:
#	150
#	12014
#	29651
#	42340
#	61856
#	79555
#	96327
#	120132
#	133312
#	147660
#	164394
#	181416
#	196889
#	204912
#	219047
#	237387
#	253091
#	265421
#	279924
#	299206
#	310625
#
# Disc length: 4441 seconds
#
# Revision: 0
# Processed by: cddbd v1.5.2PL0 Copyright (c) Steve Scherf et al.
# Submitted via: EZCDAudioConverter 1.2.3.1
#
DISCID=33115715
DTITLE=Various Artist - Music from the Past to the Present Disc 2
DYEAR=2004
DGENRE=Gospel, Southern
TTITLE0=Legacy Five - Joy
TTITLE1=Talley Trio - The Answer Is Christ
TTITLE2=Brian Free and Assurance - When We All Get To Heaven
TTITLE3=Karen Peck and New River - Four Days Late
TTITLE4=Booth Brothers - Still Feeling Fine
TTITLE5=Ivan Parker - It's Time
TTITLE6=Aaron Wilburn - Krispy Creme
TTITLE7=Signature Sound Quartet - City Built Four Square
TTITLE8=Lesters - He'll Only Need It For The Weekend
TTITLE9=Greater Vision - He's Still Waiting By The Well
TTITLE10=Greenes - He's Still Alive
TTITLE11=Jim Wilburn - I Hear My Father Calling Me
TTITLE12=Dove Brothers - Read That Book
TTITLE13=Carroll Roberson - By Faith
TTITLE14=Charles Johnson and The Revivers - Good Time In The House
TTITLE15=The Wilburns - He Rose A King
TTITLE16=Carolina Boys - God Sits On High
TTITLE17=The Martins - So High
TTITLE18=Poet Voices - I Am Redeemed
TTITLE19=Mark Bishop - Jesus Can Lift You Up
TTITLE20=Dixie Melody Boys - How Beautiful Heaven Must Be
EXTD=
EXTT0=
EXTT1=
EXTT2=
EXTT3=
EXTT4=
EXTT5=
EXTT6=
EXTT7=
EXTT8=
EXTT9=
EXTT10=
EXTT11=
EXTT12=
EXTT13=
EXTT14=
EXTT15=
EXTT16=
EXTT17=
EXTT18=
EXTT19=
EXTT20=
PLAYORDER=
